<svg xmlns:xlink="http://www.w3.org/1999/xlink" width="21" height="20" viewBox="0 0 21 20" fill="none" xmlns="http://www.w3.org/2000/svg"><g clip-path="url(#clip0_705_1399)" fill="none"><path d="M17.5667 17.5H4.23332C3.79129 17.5 3.36737 17.3244 3.05481 17.0118C2.74225 16.6993 2.56665 16.2754 2.56665 15.8333V4.16667C2.56665 3.72464 2.74225 3.30072 3.05481 2.98816C3.36737 2.67559 3.79129 2.5 4.23332 2.5H17.5667C18.0087 2.5 18.4326 2.67559 18.7452 2.98816C19.0577 3.30072 19.2333 3.72464 19.2333 4.16667V15.8333C19.2333 16.2754 19.0577 16.6993 18.7452 17.0118C18.4326 17.3244 18.0087 17.5 17.5667 17.5Z" stroke="#FFFFFF" stroke-width="1.2px" stroke-linecap="round" stroke-linejoin="round" fill="none"></path><path d="M2.56665 6.6665H19.2333" stroke="#FFFFFF" stroke-width="1.2px" stroke-linecap="round" stroke-linejoin="round" fill="none"></path><path d="M7.56665 6.66667L8.39998 2.5" stroke="#FFFFFF" stroke-width="1.2px" stroke-linecap="round" stroke-linejoin="round" fill="none"></path><path d="M13.3999 6.66667L14.2332 2.5" stroke="#FFFFFF" stroke-width="1.2px" stroke-linecap="round" stroke-linejoin="round" fill="none"></path></g><defs><clipPath id="clip0_705_1399"><rect width="20" height="20" fill="white" transform="translate(0.899902)"></rect></clipPath></defs></svg>