<svg xmlns:xlink="http://www.w3.org/1999/xlink" width="21" height="20" viewBox="0 0 21 20" fill="none" xmlns="http://www.w3.org/2000/svg"><g clip-path="url(#clip0_705_1387)" fill="none"><path d="M2.96484 7.33383C3.45786 5.93948 4.32729 4.70885 5.47681 3.77832" stroke="#FFFFFF" stroke-width="1.2px" stroke-linecap="round" stroke-linejoin="round" fill="none"></path><path d="M2.5 10.0005C2.5 10.9374 2.66889 11.8316 2.96488 12.6671" stroke="#FFFFFF" stroke-width="1.2px" stroke-linecap="round" stroke-linejoin="round" fill="none"></path><path d="M17.2189 3.25127C17.3582 3.39064 17.4687 3.55609 17.5441 3.73817C17.6195 3.92025 17.6583 4.11539 17.6582 4.31246C17.6582 4.50952 17.6193 4.70465 17.5439 4.88669C17.4684 5.06874 17.3579 5.23415 17.2185 5.37346C17.0791 5.51278 16.9137 5.62328 16.7316 5.69865C16.5495 5.77403 16.3544 5.8128 16.1573 5.81276C15.9602 5.81272 15.7651 5.77386 15.583 5.69841C15.401 5.62296 15.2356 5.51239 15.0963 5.37302C14.8149 5.09154 14.6569 4.70982 14.657 4.31183C14.6571 3.91384 14.8152 3.53218 15.0967 3.25082C15.3782 2.96946 15.7599 2.81144 16.1579 2.81152C16.5559 2.81161 16.9376 2.96979 17.2189 3.25127Z" stroke="#FFFFFF" stroke-width="1.2px" stroke-linecap="round" stroke-linejoin="round" fill="none"></path><path d="M14.9915 3.38081C14.004 2.71013 12.8788 2.26915 11.6986 2.09026C10.5183 1.91137 9.31303 1.99911 8.17114 2.34705" stroke="#FFFFFF" stroke-width="1.2px" stroke-linecap="round" stroke-linejoin="round" fill="none"></path><path d="M9.55846 7.38494L13.0091 9.42581C13.1088 9.48478 13.1914 9.56871 13.2487 9.66932C13.3061 9.76993 13.3363 9.88376 13.3363 9.99958C13.3363 10.1154 13.3061 10.2292 13.2487 10.3298C13.1914 10.4304 13.1088 10.5144 13.0091 10.5733L9.55846 12.6142C9.45719 12.6741 9.34186 12.7062 9.22418 12.7071C9.10651 12.7081 8.99069 12.6778 8.88848 12.6195C8.78627 12.5612 8.70133 12.4768 8.64227 12.3751C8.58322 12.2733 8.55216 12.1577 8.55225 12.04V7.95916C8.55216 7.84148 8.58322 7.72588 8.64227 7.62409C8.70133 7.52231 8.78627 7.43797 8.88848 7.37964C8.99069 7.32131 9.10651 7.29108 9.22418 7.29201C9.34186 7.29294 9.45719 7.32501 9.55846 7.38494Z" stroke="#FFFFFF" stroke-width="1.2px" stroke-linecap="round" stroke-linejoin="round" fill="none"></path><path d="M5.47689 16.1985C5.09463 15.896 4.74113 15.5589 4.4209 15.1914" stroke="#FFFFFF" stroke-width="1.2px" stroke-linecap="round" stroke-linejoin="round" fill="none"></path><path d="M8.17114 17.6536C9.36678 18.0175 10.631 18.0961 11.8625 17.8832C13.094 17.6704 14.2585 17.172 15.2627 16.4279C16.2668 15.6839 17.0827 14.7149 17.6449 13.5987C18.207 12.4825 18.4999 11.2502 18.4999 10.0004C18.4999 9.51774 18.4501 9.04753 18.3683 8.58887" stroke="#FFFFFF" stroke-width="1.2px" stroke-linecap="round" stroke-linejoin="round" fill="none"></path></g><defs><clipPath id="clip0_705_1387"><rect width="20" height="20" fill="white" transform="translate(0.5)"></rect></clipPath></defs></svg>