<svg xmlns:xlink="http://www.w3.org/1999/xlink" width="21" height="20" viewBox="0 0 21 20" fill="none" xmlns="http://www.w3.org/2000/svg"><path d="M14.4453 3.66699C14.9168 3.66699 15.369 3.8543 15.7025 4.18772C16.0359 4.52114 16.2232 4.97335 16.2232 5.44487" stroke="#FFFFFF" stroke-width="1.2px" stroke-linecap="round" stroke-linejoin="round" fill="none"></path><path d="M15.334 1C17.2985 1 18.8897 2.5912 18.8897 4.55575" stroke="#FFFFFF" stroke-width="1.2px" stroke-linecap="round" stroke-linejoin="round" fill="none"></path><path d="M16.223 8.11168V12.5564C16.223 13.0279 16.0357 13.4801 15.7023 13.8135C15.3689 14.1469 14.9167 14.3343 14.4451 14.3343H3.77788C3.30635 14.3343 2.85414 14.1469 2.52073 13.8135C2.18731 13.4801 2 13.0279 2 12.5564V5.44487C2 4.97335 2.18731 4.52114 2.52073 4.18772C2.85414 3.8543 3.30635 3.66699 3.77788 3.66699H11.7783" stroke="#FFFFFF" stroke-width="1.2px" stroke-linecap="round" stroke-linejoin="round" fill="none"></path><path d="M5.55566 17H12.6672" stroke="#FFFFFF" stroke-width="1.2px" stroke-linecap="round" stroke-linejoin="round" fill="none"></path></svg>