<svg xmlns:xlink="http://www.w3.org/1999/xlink" width="21" height="20" viewBox="0 0 21 20" fill="none" xmlns="http://www.w3.org/2000/svg"><g clip-path="url(#clip0_705_1280)" fill="none"><path d="M9.91745 7.54857L13.1525 9.4619C13.2459 9.51719 13.3233 9.59587 13.3771 9.6902C13.4309 9.78452 13.4592 9.89124 13.4592 9.99982C13.4592 10.1084 13.4309 10.2151 13.3771 10.3094C13.3233 10.4038 13.2459 10.4824 13.1525 10.5377L9.91745 12.4511C9.82251 12.5073 9.71439 12.5373 9.60407 12.5382C9.49375 12.5391 9.38516 12.5107 9.28934 12.456C9.19352 12.4014 9.11389 12.3223 9.05852 12.2269C9.00316 12.1314 8.97404 12.0231 8.97412 11.9127V8.0869C8.97404 7.97658 9.00316 7.8682 9.05852 7.77277C9.11389 7.67735 9.19352 7.59828 9.28934 7.5436C9.38516 7.48892 9.49375 7.46057 9.60407 7.46145C9.71439 7.46232 9.82251 7.49238 9.91745 7.54857Z" stroke="#FFFFFF" stroke-width="1.2px" stroke-linecap="round" stroke-linejoin="round" fill="none"></path><path d="M15.8 17.5H5.80005C5.13701 17.5 4.50112 17.2366 4.03228 16.7678C3.56344 16.2989 3.30005 15.663 3.30005 15V5C3.30005 4.33696 3.56344 3.70107 4.03228 3.23223C4.50112 2.76339 5.13701 2.5 5.80005 2.5H15.8C16.4631 2.5 17.099 2.76339 17.5678 3.23223C18.0367 3.70107 18.3 4.33696 18.3 5V15C18.3 15.663 18.0367 16.2989 17.5678 16.7678C17.099 17.2366 16.4631 17.5 15.8 17.5Z" stroke="#FFFFFF" stroke-width="1.2px" stroke-linecap="round" stroke-linejoin="round" fill="none"></path></g><defs><clipPath id="clip0_705_1280"><rect width="20" height="20" fill="white" transform="translate(0.800049)"></rect></clipPath></defs></svg>