<svg xmlns:xlink="http://www.w3.org/1999/xlink" width="21" height="20" viewBox="0 0 21 20" fill="none" xmlns="http://www.w3.org/2000/svg"><g clip-path="url(#clip0_705_1379)" fill="none"><path d="M16.764 17.5H3.43571C2.99368 17.5 2.56976 17.3244 2.2572 17.0118C1.94464 16.6993 1.76904 16.2754 1.76904 15.8333V4.16667C1.76904 3.72464 1.94464 3.30072 2.2572 2.98816C2.56976 2.67559 2.99368 2.5 3.43571 2.5H16.764C17.2061 2.5 17.63 2.67559 17.9426 2.98816C18.2551 3.30072 18.4307 3.72464 18.4307 4.16667V15.8333C18.4307 16.2754 18.2551 16.6993 17.9426 17.0118C17.63 17.3244 17.2061 17.5 16.764 17.5Z" stroke="#FFFFFF" stroke-width="1.2px" stroke-linecap="round" stroke-linejoin="round" fill="none"></path><path d="M7.94488 6.32186C8.10406 6.4756 8.23103 6.65951 8.31838 6.86285C8.40573 7.06619 8.45171 7.28489 8.45363 7.50619C8.45555 7.72749 8.41339 7.94695 8.32958 8.15178C8.24578 8.35661 8.12203 8.54269 7.96554 8.69918C7.80905 8.85567 7.62296 8.97943 7.41814 9.06323C7.21331 9.14703 6.99384 9.1892 6.77255 9.18727C6.55125 9.18535 6.33255 9.13937 6.12921 9.05203C5.92587 8.96468 5.74196 8.83771 5.58821 8.67852C5.28462 8.36419 5.11663 7.94318 5.12042 7.50619C5.12422 7.06919 5.2995 6.65117 5.60852 6.34216C5.91753 6.03315 6.33555 5.85786 6.77255 5.85407C7.20954 5.85027 7.63054 6.01826 7.94488 6.32186Z" fill="#FFFFFF"></path><path d="M18.4331 13.3332L14.9173 10.5207C14.8318 10.4523 14.7337 10.4014 14.6286 10.3709C14.5234 10.3404 14.4133 10.3309 14.3045 10.343C14.1957 10.355 14.0903 10.3884 13.9944 10.4412C13.8985 10.4941 13.814 10.5652 13.7456 10.6507L10.9656 14.1257C10.8972 14.2112 10.8127 14.2824 10.7168 14.3352C10.6209 14.388 10.5155 14.4214 10.4067 14.4335C10.2979 14.4456 10.1878 14.4361 10.0826 14.4056C9.9775 14.3751 9.87939 14.3242 9.79394 14.2557L8.23727 13.0099C8.06691 12.8736 7.8499 12.8096 7.63286 12.8316C7.41582 12.8536 7.21605 12.9598 7.07644 13.1274L3.43311 17.4999" stroke="#FFFFFF" stroke-width="1.2px" stroke-linecap="round" stroke-linejoin="round" fill="none"></path></g><defs><clipPath id="clip0_705_1379"><rect width="20" height="20" fill="white" transform="translate(0.0998535)"></rect></clipPath></defs></svg>